<?xml version="1.0" encoding="utf-8"?>
<!-- Generator: Adobe Illustrator 16.0.0, SVG Export Plug-In . SVG Version: 6.00 Build 0)  -->
<!DOCTYPE svg PUBLIC "-//W3C//DTD SVG 1.1//EN" "http://www.w3.org/Graphics/SVG/1.1/DTD/svg11.dtd">
<svg version="1.1" id="Layer_1" xmlns="http://www.w3.org/2000/svg" xmlns:xlink="http://www.w3.org/1999/xlink" x="0px" y="0px"
	 width="126.75px" height="27.75px" viewBox="0 0 126.75 27.75" enable-background="new 0 0 126.75 27.75" xml:space="preserve">
<rect x="-0.25" y="-0.5" fill="#ECF2EC" width="127" height="28"/>
<g>
	<path fill="#34474E" d="M88.877,23.625c-0.019,0-0.037-0.001-0.057-0.003c-3.02-0.336-3.83-3.053-4.613-5.681
		c-0.638-2.14-1.297-4.349-3.129-5.381c-1.377,1.674-2.178,3.917-2.286,6.35c0.067,0.455,0.08,0.968,0.018,1.562
		c-0.026,0.259-0.229,0.485-0.506,0.448c-0.259-0.005-0.472-0.207-0.49-0.466c-0.034-0.496-0.042-0.989-0.024-1.477
		c-0.157-0.925-0.6-1.566-1.118-2.318c-0.125-0.181-0.252-0.364-0.378-0.558c-0.146,0.209-0.288,0.4-0.422,0.581
		c-0.783,1.058-1.301,1.757-1.052,3.631c0.035,0.269-0.149,0.517-0.418,0.56c-0.262,0.044-0.52-0.136-0.569-0.403
		c-0.257-1.383-0.975-2.501-1.733-3.686c-0.199-0.31-0.398-0.622-0.593-0.942c-1.277,1.056-2.069,2.99-2.147,5.3
		c-0.005,0.143-0.07,0.275-0.179,0.366c-0.109,0.092-0.246,0.132-0.393,0.112c-0.431-0.062-9.618-1.416-11.926-4.613
		c-1.387-0.018-2.761-0.135-4.115-0.269c0.129,0.912,0.128,1.914-0.046,2.987c-0.031,0.198-0.178,0.357-0.372,0.406
		c-1.129,0.282-2.322,0.302-3.418,0.082c-0.643,1.152-1.657,1.712-2.422,1.98c-2.922,1.028-7.31-0.315-9.983-2.728
		c-0.229,0.312-0.49,0.592-0.786,0.832c-1.164,0.946-2.721,1.16-4.626,0.645c-0.248-0.067-0.404-0.311-0.362-0.563
		c0.255-1.552-0.05-2.797-0.859-3.508c-0.815-0.717-2.104-0.887-3.647-0.491c-0.022,0.333-0.06,0.688-0.097,1.056
		c-0.034,0.329-0.07,0.673-0.096,1.015c0.061,0.883,0.11,1.645,0.11,2.205c0,0.251-0.186,0.463-0.435,0.496
		c-0.251,0.032-0.483-0.124-0.549-0.367c-0.188-0.705-0.187-1.526-0.129-2.337c-0.001-0.012-0.002-0.024-0.003-0.036
		c-0.044-0.648-0.092-1.349-0.129-2.078c-1.288,2.009-2.937,3.685-4.881,4.632c-2.093,1.019-5.394,1.593-9.237-1.463
		c-0.111-0.089-0.18-0.221-0.188-0.362l-0.061-0.987c-0.128-2.065-0.259-4.165-0.089-6.033c-1.907-0.045-3.723-0.459-5.024-1.11
		c-0.247-0.124-0.347-0.424-0.224-0.671c0.125-0.246,0.428-0.347,0.671-0.224c1.189,0.596,2.907,0.973,4.702,1.002
		c0.266-1.621,0.827-3.008,1.917-3.957c1.43-1.247,3.556-1.565,6.503-0.973c0.266,0.054,0.44,0.309,0.394,0.576
		c-0.318,1.828-1.47,3.29-3.331,4.229c-1.381,0.696-2.998,1.043-4.603,1.117c-0.177,1.813-0.046,3.915,0.082,5.982l0.047,0.765
		c2.668,2.046,5.43,2.463,8.002,1.21c2.19-1.067,3.979-3.146,5.253-5.571c-0.06-3.477,0.311-7.172,2.369-8.925
		c0.149-0.125,0.356-0.153,0.532-0.074c0.177,0.081,0.29,0.257,0.292,0.451c0.021,2.709-0.757,5.917-2.186,8.736
		c0.005,0.255,0.013,0.509,0.021,0.759c1.928-0.521,3.577-0.282,4.671,0.678c0.99,0.87,1.426,2.265,1.248,3.962
		c1.396,0.302,2.48,0.116,3.309-0.56c0.266-0.215,0.497-0.478,0.699-0.775c-0.376-0.422-0.699-0.869-0.955-1.335
		c-0.855-1.557-1.683-4.646,2.386-7.854c0.146-0.116,0.342-0.14,0.515-0.063c0.169,0.076,0.283,0.24,0.294,0.426
		c0.163,2.717,0.191,6.275-0.995,8.675c2.384,2.249,6.496,3.574,9.126,2.655c0.767-0.27,1.351-0.712,1.748-1.317
		c-0.45-0.162-0.871-0.37-1.252-0.622c-1.161-0.768-1.889-1.881-2.103-3.221c-0.039-0.25,0.113-0.49,0.356-0.56
		c0.288-0.083,0.59-0.14,0.896-0.175c-0.387-2.464,0.434-3.463,0.984-3.847c0.806-0.559,1.933-0.485,3.019,0.196
		c1.166,0.732,2.232,2.131,2.732,4.007c1.307,0.131,2.583,0.248,3.854,0.286c-0.006-0.028-0.012-0.057-0.017-0.085
		c-0.271-1.495,0.894-2.932,3.559-4.39c0.133-0.073,0.291-0.083,0.428-0.024c0.14,0.056,0.246,0.172,0.29,0.315
		c0.397,1.286,0.31,3.233,0.046,4.593c-0.041,0.209-0.21,0.369-0.421,0.399c-0.701,0.1-1.401,0.157-2.099,0.185
		c1.926,1.707,6.756,3.003,10.212,3.556c0.213-2.665,1.291-4.78,3.001-5.855c0.116-0.073,0.257-0.097,0.389-0.062
		c0.133,0.033,0.245,0.119,0.312,0.237c0.271,0.477,0.561,0.929,0.848,1.376c0.357,0.558,0.72,1.123,1.036,1.725
		c0.239-0.732,0.649-1.285,1.091-1.882c0.266-0.358,0.54-0.729,0.812-1.18c0.093-0.151,0.27-0.235,0.437-0.241
		c0.179,0.003,0.342,0.102,0.428,0.257c0.237,0.427,0.498,0.804,0.75,1.169c0.185,0.267,0.366,0.53,0.534,0.805
		c0.4-2.032,1.274-3.87,2.554-5.293c0.146-0.163,0.378-0.213,0.578-0.121c2.502,1.132,3.301,3.811,4.005,6.174
		c0.702,2.354,1.314,4.408,3.303,4.891c0.375-1.951,1.32-4.775,1.364-4.905c0.084-0.254,0.354-0.397,0.611-0.321
		c0.257,0.073,0.41,0.336,0.349,0.597c-0.43,1.805-0.264,3.285,0.444,3.961c0.432,0.412,1.073,0.523,1.917,0.326
		c0.492-1.702,2.737-5.679,2.769-5.721c0.119-0.164,0.33-0.238,0.521-0.189c0.196,0.048,0.345,0.21,0.375,0.409
		c0.279,1.821,0.771,2.917,1.463,3.259c0.918,0.454,2.354-0.333,3.873-1.166c1.811-0.99,3.863-2.113,5.75-1.478
		c0.692,0.232,1.304,0.676,1.844,1.342c0.258-0.88,0.929-1.448,1.665-1.728c2.138-0.814,5.379,0.33,6.688,3.055
		c0.955,0.121,1.931,0.147,2.835,0.077c0.27-0.025,0.516,0.184,0.537,0.459c0.022,0.275-0.184,0.516-0.459,0.537
		c-1.063,0.084-2.215,0.041-3.328-0.12c-0.174-0.025-0.321-0.141-0.389-0.302c-1.074-2.564-3.989-3.353-5.529-2.771
		c-1.048,0.397-1.382,1.331-0.938,2.628c0.086,0.253-0.042,0.528-0.291,0.626c-0.246,0.1-0.531-0.016-0.639-0.261
		c-0.644-1.438-1.4-2.287-2.314-2.595c-1.473-0.497-3.241,0.473-4.95,1.408c-1.755,0.96-3.41,1.869-4.796,1.186
		c-0.801-0.396-1.364-1.253-1.736-2.659c-0.752,1.447-1.893,3.799-2.079,4.38c0.021,0.233-0.126,0.456-0.359,0.523
		c-1.646,0.473-2.604-0.011-3.117-0.502c-0.346-0.33-0.604-0.766-0.769-1.286c-0.176,0.677-0.328,1.345-0.407,1.883
		C89.334,23.445,89.121,23.625,88.877,23.625z M49.301,19.272c0.791,0.134,1.638,0.125,2.461-0.038
		c0.119-0.941,0.094-1.812-0.041-2.599c-0.746-0.075-1.502-0.151-2.263-0.212C49.604,17.581,49.522,18.517,49.301,19.272z
		 M45.64,16.39c0.245,0.854,0.78,1.569,1.565,2.088c0.338,0.224,0.716,0.406,1.12,0.547c0.22-0.721,0.264-1.586,0.127-2.586
		C47.607,16.325,46.551,16.236,45.64,16.39z M37.082,10.994c-2,1.89-2.478,3.928-1.374,5.936c0.164,0.299,0.36,0.589,0.584,0.868
		C37.153,15.731,37.157,12.798,37.082,10.994z M59.837,12.733c-1.352,0.813-2.675,1.909-2.478,3.003
		c0.018,0.092,0.043,0.184,0.078,0.274c0.778-0.007,1.556-0.05,2.34-0.146C59.928,14.91,59.986,13.696,59.837,12.733z
		 M46.807,15.292c1.573,0.016,3.138,0.16,4.663,0.313c-0.457-1.427-1.289-2.483-2.195-3.053c-0.733-0.46-1.448-0.546-1.915-0.223
		C46.756,12.751,46.561,13.819,46.807,15.292z M26.956,7.459c-0.668,1.211-0.967,2.888-1.075,4.656
		C26.446,10.563,26.812,8.964,26.956,7.459z M16.375,6.897c-1.388,0-2.455,0.338-3.233,1.016c-0.847,0.738-1.315,1.852-1.557,3.183
		c1.413-0.084,2.822-0.395,4.014-0.996c1.419-0.715,2.32-1.731,2.688-3.025C17.592,6.957,16.955,6.897,16.375,6.897z"/>
</g>
</svg>
