<?xml version="1.0" encoding="utf-8"?>
<!-- Generator: Adobe Illustrator 16.0.0, SVG Export Plug-In . SVG Version: 6.00 Build 0)  -->
<!DOCTYPE svg PUBLIC "-//W3C//DTD SVG 1.1//EN" "http://www.w3.org/Graphics/SVG/1.1/DTD/svg11.dtd">
<svg version="1.1" id="Layer_1" xmlns="http://www.w3.org/2000/svg" xmlns:xlink="http://www.w3.org/1999/xlink" x="0px" y="0px"
	 width="126.75px" height="50.667px" viewBox="0 0 126.75 50.667" enable-background="new 0 0 126.75 50.667" xml:space="preserve">
<rect x="-0.25" y="-1.667" fill="#ECF2EC" width="127" height="52"/>
<g>
	<g>
		<path fill="#32484E" d="M27.376,34.968c-0.523,0-1.095-0.046-1.723-0.144c-4.934-0.765-5.823-2.526-5.857-7.106
			c-0.016-2.069-0.045-5.921,2.35-7.1c3.282-1.622,6.084,2.551,8.553,6.229c0.653,0.974,1.288,1.918,1.888,2.688
			c0.164-0.368,0.331-0.756,0.507-1.162l0.405-0.934c0.796-1.81,1.349-3.768,1.883-5.66c0.613-2.173,1.248-4.421,2.26-6.506
			c0.022-0.045,0.045-0.09,0.067-0.135c-0.731-0.737-0.981-1.635-1.226-2.515c-0.218-0.78-0.423-1.519-0.962-2.195
			c-0.173-0.216-0.137-0.53,0.079-0.702c0.216-0.174,0.53-0.137,0.702,0.079c0.667,0.836,0.92,1.747,1.144,2.551
			c0.196,0.703,0.369,1.326,0.774,1.846c0.729-1.24,1.644-2.463,2.534-3.655c0.672-0.899,1.308-1.75,1.855-2.591
			c0.989-1.517,1.894-2.712,3.752-3.156c1.816-0.436,4.59-0.192,5.075,1.704c0.561,2.172-2.759,5.902-4.788,7.933
			c-2.105,2.105-4.428,2.688-7.103,1.781c-0.396-0.135-0.735-0.289-1.028-0.46c-0.96,1.992-1.577,4.179-2.174,6.293
			c-0.544,1.926-1.106,3.918-1.93,5.791l-0.403,0.928c-0.242,0.561-0.475,1.1-0.711,1.609c0.272,0.288,0.536,0.523,0.788,0.689
			c0.23,0.151,0.295,0.462,0.144,0.692c-0.151,0.231-0.466,0.294-0.692,0.144c-0.232-0.152-0.467-0.348-0.703-0.576
			C31.692,33.513,30.3,34.968,27.376,34.968z M23.581,21.277c-0.332,0-0.663,0.074-0.994,0.237
			c-1.831,0.902-1.805,4.346-1.791,6.195c0.031,4.215,0.658,5.452,5.01,6.126c3.7,0.571,5.04-0.717,6.311-3.292
			c-0.726-0.872-1.475-1.986-2.248-3.14C27.924,24.509,25.754,21.277,23.581,21.277z M38.986,14.872
			c0.245,0.147,0.535,0.281,0.881,0.398c2.309,0.782,4.239,0.295,6.074-1.541c3.055-3.057,4.831-5.796,4.526-6.977
			c-0.285-1.114-2.447-1.322-3.874-0.98c-1.506,0.36-2.224,1.314-3.146,2.73c-0.565,0.867-1.24,1.77-1.893,2.643
			C40.642,12.368,39.703,13.624,38.986,14.872z"/>
	</g>
	<g>
		<path fill="#32484E" d="M55.139,47.087c-0.847,0-1.704-0.343-2.471-1.008c-0.785-0.683-1.201-1.625-1.237-2.801
			c-0.097-3.165,2.627-7.192,4.106-8.646c0.809-0.794,1.638-1.35,2.487-1.744c0.073-1.48,0.173-2.973,0.318-4.468
			c-0.63,0.716-1.429,1.246-2.345,1.354c-0.252,0.032-0.503-0.145-0.55-0.404c-0.113-0.604-0.068-1.197,0.023-1.778
			c-0.085,0.168-0.169,0.341-0.252,0.512c-0.651,1.349-1.464,3.029-3.291,2.564c-0.644-0.163-1.191-0.602-1.584-1.269
			c-0.238-0.402-0.411-0.878-0.527-1.374c-0.49,0.818-1.219,1.396-2.354,1.137c-0.185-0.043-0.329-0.187-0.374-0.37
			c-0.166-0.691-0.093-1.357,0.019-2.005c-0.839,1.574-1.881,3.329-3.382,3.719c-0.73,0.188-1.483,0.033-2.239-0.461
			c-0.15-0.098-0.237-0.27-0.226-0.449c0.029-0.467,0.113-0.928,0.195-1.373c0.055-0.299,0.108-0.59,0.144-0.874
			c-0.029,0.028-0.061,0.058-0.091,0.086c-1.985,1.891-3.724,3.413-4.821,2.909c-0.512-0.232-0.75-0.816-0.708-1.735
			c0.059-1.301,1.173-2.614,2.386-2.812c0.428-0.067,1.467-0.073,2.038,1.306c0.135-0.125,0.273-0.256,0.416-0.392
			c0.457-0.436,0.788-0.75,1.003-0.904c0.142-0.104,0.328-0.123,0.49-0.054c0.161,0.069,0.274,0.219,0.298,0.394
			c0.102,0.771-0.037,1.525-0.171,2.256c-0.061,0.329-0.118,0.645-0.153,0.955c0.42,0.22,0.812,0.281,1.188,0.18
			c1.226-0.317,2.25-2.267,2.998-3.689c0.344-0.653,0.641-1.218,0.936-1.623c0.118-0.163,0.319-0.237,0.521-0.191
			c0.195,0.047,0.345,0.207,0.377,0.405c0.12,0.729-0.013,1.438-0.141,2.124c-0.107,0.577-0.211,1.128-0.16,1.655
			c0.932-0.051,1.354-1.397,1.735-2.901l0.035-0.136c0.004-0.016,0.008-0.031,0.012-0.047c0.069-0.266,0.337-0.427,0.608-0.357
			c0.267,0.069,0.428,0.341,0.359,0.608l-0.01,0.04c-0.228,0.923-0.099,2.519,0.461,3.467c0.258,0.438,0.584,0.71,0.968,0.808
			c0.975,0.241,1.456-0.604,2.146-2.031c0.462-0.955,0.939-1.943,1.771-2.307c0.165-0.072,0.354-0.051,0.498,0.057
			c0.145,0.107,0.22,0.283,0.198,0.461c-0.045,0.379-0.118,0.756-0.192,1.129c-0.111,0.572-0.22,1.121-0.214,1.648
			c1.063-0.409,1.898-1.65,2.263-2.765c0.082-0.247,0.337-0.392,0.587-0.332c0.252,0.058,0.419,0.298,0.384,0.554
			c-0.286,2.128-0.456,4.26-0.568,6.375c1.449-0.468,2.953-0.572,4.504-0.68c0.418-0.029,0.846-0.059,1.282-0.096
			c0.247-0.019,0.517,0.181,0.54,0.456c0.023,0.274-0.181,0.517-0.456,0.54c-0.441,0.038-0.874,0.067-1.298,0.097
			c-1.718,0.12-3.221,0.224-4.624,0.75c-0.074,1.636-0.119,3.259-0.164,4.859c-0.045,1.632-0.091,3.268-0.165,4.912
			c-0.069,1.562-0.965,2.936-2.281,3.5C55.98,47.002,55.561,47.087,55.139,47.087z M57.973,34.029
			c-0.588,0.328-1.163,0.756-1.734,1.316c-1.607,1.578-3.888,5.3-3.809,7.902c0.028,0.898,0.32,1.577,0.895,2.075
			c0.86,0.748,1.809,0.957,2.665,0.587c0.951-0.409,1.625-1.464,1.678-2.627c0.073-1.639,0.118-3.269,0.164-4.895
			C57.871,36.951,57.911,35.496,57.973,34.029z M38.675,26.771c-0.062,0-0.113,0.009-0.149,0.015
			c-0.744,0.121-1.511,1.047-1.548,1.869c-0.026,0.59,0.092,0.766,0.124,0.781c0.309,0.134,1.171-0.421,2.571-1.665
			c-0.073-0.055-0.134-0.131-0.169-0.223C39.244,26.873,38.894,26.771,38.675,26.771z"/>
	</g>
	<g>
		<path fill="#32484E" d="M70.144,31.63c-0.152,0-0.304-0.07-0.401-0.202c-0.502-0.677-0.196-1.858,0.073-2.901
			c0.067-0.261,0.129-0.495,0.16-0.675c0.26-1.479,0.544-2.954,0.828-4.428c0.22-1.138,0.439-2.274,0.646-3.412l0.099-0.54
			c0.328-1.802,0.662-3.637,1.089-5.451c-0.039,0.05-0.08,0.101-0.121,0.151c-0.913,1.124-3.776,3.808-6.036,2.745
			c-0.25-0.117-0.357-0.415-0.239-0.665c0.117-0.249,0.414-0.356,0.665-0.239c1.398,0.655,3.71-1.086,4.835-2.472
			c1.036-1.275,1.609-2.45,2.151-3.821c0.1-0.254,0.388-0.378,0.642-0.284c0.256,0.097,0.387,0.381,0.293,0.638
			c-1.107,3.061-1.711,6.374-2.295,9.578l-0.098,0.54c-0.209,1.141-0.429,2.281-0.648,3.422c-0.283,1.468-0.567,2.938-0.826,4.411
			c-0.034,0.199-0.102,0.461-0.177,0.752c-0.147,0.572-0.455,1.763-0.238,2.056c0.165,0.222,0.118,0.535-0.104,0.699
			C70.352,31.598,70.247,31.63,70.144,31.63z"/>
	</g>
	<g>
		<path fill="#32484E" d="M78.509,31.09c-0.027,0-0.056-0.002-0.083-0.007c-2.401-0.401-4.094-3.917-5.214-6.244
			c-0.158-0.329-0.304-0.631-0.434-0.888l-0.047-0.091c-0.188-0.373-0.399-0.789-0.638-1.189c-0.988,0.556-2.258,1.055-3.114,0.631
			c-0.395-0.196-0.86-0.662-0.836-1.771c0.011-0.516,0.074-1.04,0.46-1.381c0.403-0.354,0.99-0.345,1.51-0.293
			c0.953,0.099,1.688,0.71,2.271,1.461c0.211-0.142,0.408-0.285,0.582-0.424c0.877-0.695,1.469-1.663,2.095-2.688
			c0.295-0.481,0.589-0.962,0.911-1.411c0.286-0.398,0.624-0.808,0.97-1.226c0.736-0.89,1.497-1.809,1.821-2.738
			c0.091-0.261,0.375-0.399,0.637-0.307c0.261,0.091,0.398,0.376,0.307,0.637c-0.383,1.099-1.202,2.089-1.994,3.046
			c-0.33,0.399-0.654,0.789-0.928,1.171c-0.309,0.43-0.589,0.889-0.87,1.35c-0.645,1.054-1.311,2.144-2.326,2.949
			c-0.033,0.026-0.277,0.219-0.646,0.468c0.263,0.438,0.486,0.878,0.682,1.263l0.046,0.09c0.133,0.263,0.281,0.57,0.443,0.907
			c0.968,2.011,2.587,5.376,4.477,5.691c0.272,0.046,0.457,0.303,0.411,0.575C78.96,30.917,78.748,31.09,78.509,31.09z
			 M69.645,20.83c-0.264,0-0.351,0.046-0.379,0.07c-0.041,0.036-0.112,0.169-0.122,0.652c-0.007,0.322,0.036,0.731,0.28,0.853
			c0.4,0.202,1.261-0.108,2.103-0.565c-0.427-0.53-0.926-0.927-1.517-0.988C69.86,20.836,69.74,20.83,69.645,20.83z"/>
	</g>
	<g>
		<path fill="#32484E" d="M94.001,47.554c-0.007,0-0.013,0-0.02,0c-0.4-0.016-0.74-0.193-0.981-0.514
			c-0.58-0.769-0.436-2.197-0.277-2.846c0.339-1.386,1.388-2.468,2.636-3.395c0.549-2.54,1.065-5.032,1.447-7.521
			c0.138-0.894,0.237-1.785,0.337-2.673c0.077-0.691,0.155-1.392,0.253-2.095c-0.711,0.932-1.562,1.662-2.426,1.695
			c-0.148,0.017-0.298-0.059-0.397-0.174c-0.033-0.039-0.061-0.082-0.08-0.129c-0.905,0.711-2.254,1.751-3.321,0.814
			c-0.348-0.307-0.479-0.764-0.503-1.224c-0.508,0.605-0.969,1.258-1.319,1.879c-0.125,0.219-0.395,0.312-0.625,0.217
			c-0.233-0.096-0.358-0.35-0.293-0.593c0.077-0.287,0.129-0.58,0.155-0.876c-0.416,0.233-0.753,0.573-1.124,0.947
			c-0.271,0.273-0.553,0.557-0.884,0.813c-0.161,0.127-0.385,0.141-0.563,0.033c-0.177-0.106-0.271-0.311-0.234-0.514l0.09-0.507
			c0.181-1.002,0.366-2.032,0.307-2.992c-0.314,0.231-0.698,0.56-1.033,0.846c-1.296,1.111-2.635,2.253-3.747,1.88
			c-0.545-0.188-0.908-0.706-1.081-1.542c-0.058-0.278,0.049-0.857,0.265-1.563c-0.039,0-0.08,0.001-0.119,0.001
			c-1.946,0-2.301-0.879-2.676-1.809c-0.117-0.291-0.238-0.593-0.422-0.907c-0.139-0.238-0.058-0.544,0.182-0.684
			c0.236-0.139,0.544-0.06,0.684,0.182c0.219,0.376,0.359,0.726,0.484,1.035c0.336,0.833,0.478,1.183,1.74,1.183
			c0.15,0.002,0.329-0.012,0.487-0.038c0.674-1.741,1.761-3.718,2.674-4.058c0.495-0.18,0.956,0.011,1.237,0.516
			c0.701,1.263-1.475,3.321-1.497,3.342c-0.428,0.382-0.974,0.803-1.681,1.042c-0.257,0.705-0.414,1.298-0.378,1.561
			c0.054,0.259,0.18,0.71,0.425,0.794c0.562,0.191,1.894-0.94,2.773-1.693c0.899-0.77,1.476-1.247,1.978-1.354
			c0.132-0.029,0.266-0.004,0.378,0.069c0.111,0.072,0.189,0.187,0.217,0.316c0.209,1.001,0.114,2.065-0.044,3.074
			c0.518-0.506,1.092-0.984,1.963-1.193c0.143-0.033,0.297-0.004,0.417,0.087c0.087,0.065,0.149,0.157,0.18,0.26
			c0.456-0.582,0.96-1.138,1.469-1.612c0.169-0.156,0.422-0.179,0.614-0.054c0.192,0.126,0.274,0.366,0.198,0.584
			c-0.23,0.66-0.293,1.571-0.031,1.802c0.418,0.367,1.219-0.202,2.073-0.874c0.275-0.216,0.522-0.407,0.719-0.521
			c0.16-0.094,0.357-0.092,0.514,0.006c0.156,0.096,0.248,0.271,0.237,0.454c0.001,0.007,0.004,0.02,0.008,0.038
			c1.003-0.537,2.202-2.521,2.659-3.812c0.046-0.165,0.095-0.329,0.146-0.493c0.08-0.255,0.346-0.401,0.608-0.332
			c0.259,0.071,0.416,0.334,0.355,0.596c-0.035,0.148-0.085,0.319-0.15,0.506c-0.474,1.688-0.665,3.39-0.866,5.184
			c-0.101,0.901-0.202,1.807-0.342,2.714c-0.333,2.176-0.769,4.348-1.237,6.55c0.385-0.247,0.773-0.483,1.153-0.715
			c0.783-0.479,1.523-0.93,2.092-1.378c0.984-0.777,1.809-1.53,2.477-2.265c-0.133,0.039-0.281,0.021-0.403-0.053
			c-0.137-0.083-0.225-0.227-0.237-0.387c-0.089-1.089,0.252-2.599,1.21-3.517c0.594-0.568,1.336-0.816,2.146-0.717
			c0.266,0.033,0.458,0.27,0.437,0.536c-0.025,0.318-0.078,0.638-0.159,0.957c0.093,1.748,0.498,1.986,0.579,2.017
			c0.075,0.027,0.481,0.1,1.495-0.978c0.189-0.201,0.506-0.211,0.707-0.021s0.211,0.506,0.021,0.707
			c-1.026,1.089-1.872,1.486-2.57,1.229c-0.438-0.162-0.754-0.545-0.959-1.175c-0.813,1.443-2.181,2.916-4.124,4.45
			c-0.615,0.485-1.381,0.952-2.19,1.446c-0.655,0.399-1.341,0.817-1.977,1.267c-0.017,0.078-0.033,0.156-0.051,0.234
			c-0.06,0.271-0.119,0.579-0.184,0.909c-0.316,1.623-0.711,3.644-1.622,4.829C94.303,47.481,94.156,47.554,94.001,47.554z
			 M95.032,42.368c-0.655,0.617-1.151,1.296-1.339,2.063c-0.144,0.592-0.188,1.619,0.104,2.006c0.003,0.004,0.006,0.008,0.01,0.012
			C94.438,45.399,94.778,43.672,95.032,42.368z M104.357,31.955c-0.301,0.056-0.575,0.201-0.818,0.435
			c-0.44,0.422-0.756,1.114-0.87,1.845c0.666-0.532,1.294-1.346,1.633-2.03C104.322,32.121,104.341,32.038,104.357,31.955z
			 M83.917,23.346c-0.365,0.074-1.061,1.263-1.644,2.534c0.136-0.101,0.273-0.214,0.415-0.341c0.649-0.58,1.454-1.812,1.288-2.109
			C83.941,23.364,83.918,23.347,83.917,23.346z"/>
	</g>
</g>
</svg>
