<?xml version="1.0" encoding="utf-8"?>
<!-- Generator: Adobe Illustrator 16.0.0, SVG Export Plug-In . SVG Version: 6.00 Build 0)  -->
<!DOCTYPE svg PUBLIC "-//W3C//DTD SVG 1.1//EN" "http://www.w3.org/Graphics/SVG/1.1/DTD/svg11.dtd">
<svg version="1.1" id="Layer_1" xmlns="http://www.w3.org/2000/svg" xmlns:xlink="http://www.w3.org/1999/xlink" x="0px" y="0px"
	 width="152.833px" height="43.334px" viewBox="0 0 152.833 43.334" enable-background="new 0 0 152.833 43.334"
	 xml:space="preserve">
<rect x="-1.667" y="-4" fill="#ECF2EC" width="155" height="52"/>
<g>
	<g>
		<path fill="#32484E" d="M13.259,29.728c-0.17,0-0.336-0.087-0.43-0.244c-0.973-1.635-1.062-4.606-1.128-6.775l-0.062-1.818
			c-0.05-1.438-0.102-2.924-0.214-4.398c-0.041-0.551-0.111-1.102-0.182-1.654c-0.167-1.312-0.34-2.67-0.135-4.045
			c0.04-0.272,0.299-0.462,0.567-0.421c0.273,0.04,0.462,0.295,0.421,0.567c-0.184,1.239-0.027,2.47,0.139,3.772
			c0.072,0.569,0.145,1.138,0.188,1.705c0.113,1.495,0.165,2.992,0.215,4.439l0.062,1.822c0.059,1.943,0.147,4.882,0.988,6.294
			c0.142,0.237,0.063,0.544-0.174,0.686C13.435,29.705,13.347,29.728,13.259,29.728z"/>
	</g>
	<g>
		<path fill="#32484E" d="M10.555,35.026c-1.434,0-2.803-0.13-3.985-0.278c-0.273-0.034-0.468-0.284-0.434-0.559
			c0.034-0.275,0.281-0.467,0.559-0.434c3.205,0.401,7.843,0.673,11.105-1.593c3.11-2.16,4.028-3.907,3.927-7.476
			c-0.1-3.488-2.423-6.245-4.473-8.677c-0.984-1.168-2.275-1.634-3.523-1.963c-0.456-0.12-0.922-0.25-1.393-0.382
			c-1.395-0.389-2.836-0.791-4.197-0.994c-0.273-0.04-0.462-0.295-0.421-0.567c0.039-0.274,0.305-0.464,0.567-0.421
			c1.424,0.212,2.896,0.622,4.319,1.02c0.467,0.13,0.928,0.259,1.38,0.378c1.339,0.354,2.865,0.901,4.031,2.285
			c2.05,2.431,4.6,5.456,4.709,9.293c0.111,3.935-0.947,5.958-4.356,8.326C16.069,34.582,13.203,35.026,10.555,35.026z"/>
	</g>
	<g>
		<path fill="#32484E" d="M26.333,31.616c-0.068,0-0.136-0.004-0.202-0.014c-0.39-0.054-0.93-0.301-1.29-1.169
			c-0.884-2.126,1.46-5.876,1.729-6.297c1.732-2.693,3.707-3.677,5.562-2.763c0.119,0.058,0.204,0.157,0.247,0.272
			c0.236,0.059,0.401,0.282,0.378,0.532c-0.071,0.753-0.155,1.406-0.283,2.007c-0.333,2.096-0.68,4.438,0.302,5.943
			c0.15,0.231,0.085,0.542-0.146,0.692c-0.232,0.15-0.541,0.085-0.692-0.146c-0.641-0.984-0.827-2.178-0.806-3.426
			c-0.223,0.319-0.478,0.648-0.771,0.998c-0.078,0.093-0.177,0.219-0.294,0.365C28.909,30.075,27.579,31.616,26.333,31.616z
			 M30.76,22.046c-1.341,0-2.528,1.356-3.348,2.632c-0.815,1.269-2.208,4.024-1.647,5.373c0.144,0.346,0.313,0.535,0.504,0.562
			c0.839,0.115,2.423-1.871,3.017-2.62c0.123-0.156,0.229-0.289,0.312-0.387c1.104-1.318,1.607-2.273,1.89-3.572
			c0.008-0.049,0.016-0.098,0.023-0.146c0.09-0.562,0.176-1.101,0.23-1.595c-0.017-0.006-0.032-0.013-0.049-0.021
			C31.375,22.115,31.063,22.046,30.76,22.046z"/>
	</g>
	<g>
		<path fill="#32484E" d="M43.754,33.861c-0.253,0-0.471-0.192-0.496-0.45c-0.135-1.34-0.121-2.698-0.107-4.011
			c0.009-0.885,0.019-1.8-0.02-2.688c-0.009-0.218-0.009-0.513-0.008-0.854c0.003-1.229,0.009-3.789-0.709-4.373
			c-0.599-0.487-2.072,0.107-3.264,0.918c-1.37,0.929-2.675,2.884-2.909,4.357c-0.109,0.689,0.073,1.405,0.268,2.163
			c0.15,0.591,0.307,1.202,0.331,1.837c0.01,0.275-0.205,0.508-0.481,0.519c-0.276,0.004-0.508-0.205-0.519-0.481
			c-0.02-0.527-0.156-1.062-0.301-1.626c-0.21-0.823-0.428-1.674-0.286-2.567c0.31-1.941,1.938-4.081,3.336-5.029
			c0.903-0.614,3.15-1.93,4.456-0.865c1.004,0.816,1.083,2.992,1.078,5.15c0,0.325-0.001,0.604,0.008,0.812
			c0.038,0.914,0.028,1.842,0.02,2.739c-0.014,1.286-0.027,2.615,0.102,3.901c0.028,0.274-0.172,0.52-0.447,0.547
			C43.788,33.86,43.771,33.861,43.754,33.861z"/>
	</g>
	<g>
		<path fill="#32484E" d="M47.921,33.627c-0.229,0-0.436-0.158-0.488-0.391c-0.316-1.413-0.273-2.956-0.232-4.447
			c0.046-1.669,0.093-3.395-0.379-4.858c-0.085-0.263,0.06-0.544,0.322-0.629c0.263-0.084,0.544,0.06,0.629,0.322
			c0.525,1.627,0.476,3.439,0.427,5.192c-0.041,1.496-0.079,2.909,0.21,4.201c0.06,0.27-0.109,0.537-0.379,0.598
			C47.993,33.623,47.957,33.627,47.921,33.627z"/>
	</g>
	<g>
		<path fill="#32484E" d="M46.292,14.868c-0.43,0-0.934-0.2-1.163-1.037c-0.073-0.266,0.084-0.541,0.351-0.614
			c0.029-0.008,0.059-0.013,0.088-0.016c0.259-0.214,0.644-0.531,1.197-0.184c0.116,0.073,0.198,0.191,0.225,0.327
			c0.072,0.366,0.013,0.869-0.146,1.223c-0.073,0.164-0.229,0.276-0.407,0.294C46.39,14.865,46.342,14.868,46.292,14.868z"/>
	</g>
	<g>
		<path fill="#32484E" d="M54.659,34.21c-0.31,0-0.611-0.033-0.899-0.104c-1.296-0.319-2.104-1.305-2.277-2.775
			c-0.045-0.391-0.004-1.008,0.113-1.744c-0.152,0.104-0.316,0.195-0.497,0.269c-0.256,0.104-0.548-0.019-0.651-0.274
			c-0.104-0.256,0.019-0.548,0.274-0.651c0.497-0.203,0.863-0.671,1.25-1.167c0.007-0.009,0.014-0.018,0.021-0.026
			c0.547-2.063,1.485-4.329,2.651-5.241c0.7-0.548,1.319-0.487,1.715-0.338c0.207,0.077,0.338,0.281,0.323,0.502
			c-0.094,1.375-0.244,2.435-1.348,3.549c-0.34,0.343-0.712,0.573-1.072,0.797c-0.231,0.144-0.465,0.286-0.684,0.464
			c-0.239,0.194-0.451,0.443-0.665,0.714c-0.334,1.303-0.502,2.485-0.438,3.031c0.123,1.057,0.636,1.703,1.522,1.922
			c1.349,0.333,3.211-0.436,4.061-1.68c0.156-0.229,0.471-0.284,0.695-0.131c0.228,0.156,0.286,0.467,0.131,0.695
			C57.983,33.34,56.229,34.21,54.659,34.21z M55.646,23.074c-0.109,0.028-0.236,0.091-0.386,0.207
			c-0.68,0.532-1.292,1.717-1.771,3.026c0.082-0.052,0.164-0.104,0.246-0.154c0.324-0.201,0.632-0.392,0.889-0.65
			C55.354,24.767,55.548,24.12,55.646,23.074z"/>
	</g>
	<g>
		<path fill="#32484E" d="M66.643,36.147c-0.017,0-0.032-0.001-0.048-0.002c-0.275-0.026-0.477-0.271-0.451-0.545
			c0.048-0.501,0.099-1.003,0.149-1.505c0.229-2.26,0.466-4.596,0.363-6.872c-0.1-2.172-0.415-4.383-0.721-6.521
			c-0.372-2.604-0.756-5.297-0.767-7.996c-0.001-0.276,0.222-0.501,0.498-0.502c0,0,0.001,0,0.002,0c0.275,0,0.499,0.223,0.5,0.498
			c0.01,2.63,0.39,5.288,0.757,7.858c0.309,2.162,0.628,4.397,0.729,6.617c0.107,2.349-0.134,4.723-0.366,7.018
			c-0.051,0.5-0.102,1-0.148,1.498C67.115,35.953,66.897,36.147,66.643,36.147z"/>
	</g>
	<g>
		<path fill="#32484E" d="M83.177,32.561c-0.203,0-0.395-0.124-0.469-0.326c-0.322-0.866-0.189-2.168-0.059-3.428
			c0.072-0.705,0.139-1.37,0.113-1.852l-0.057-1.113c-0.205-4.009-0.418-8.153-1.432-11.863c-0.072-0.267,0.084-0.541,0.352-0.614
			c0.27-0.071,0.541,0.085,0.613,0.351c1.041,3.814,1.258,8.014,1.465,12.076l0.057,1.11c0.031,0.56-0.041,1.263-0.117,2.007
			c-0.113,1.093-0.24,2.33,0.002,2.979c0.096,0.259-0.037,0.546-0.295,0.643C83.294,32.551,83.234,32.561,83.177,32.561z"/>
	</g>
	<g>
		<path fill="#32484E" d="M92.757,30.828c-0.049,0-0.098-0.007-0.146-0.021c-2.461-0.752-4.592-2.519-6.65-4.228
			c-1.357-1.126-2.639-2.188-3.992-2.971c-0.125-0.071-0.213-0.193-0.24-0.334c-0.029-0.141,0.004-0.286,0.092-0.401
			c0.508-0.67,1.203-1.416,1.906-2.048c1.055-0.946,1.867-1.724,2.66-2.672c0.176-0.211,0.453-0.488,0.77-0.804
			c0.674-0.673,2.076-2.071,1.953-2.66c-0.057-0.271,0.117-0.535,0.387-0.592c0.275-0.06,0.535,0.116,0.592,0.387
			c0.234,1.12-1.129,2.479-2.225,3.572c-0.291,0.29-0.547,0.545-0.709,0.739c-0.832,0.993-1.674,1.798-2.76,2.773
			c-0.508,0.456-1.01,0.975-1.43,1.474c1.25,0.789,2.461,1.792,3.635,2.766c1.982,1.646,4.035,3.349,6.303,4.041
			c0.266,0.081,0.414,0.36,0.334,0.624C93.169,30.689,92.97,30.828,92.757,30.828z"/>
	</g>
	<g>
		<path fill="#32484E" d="M97.876,30.829c-1.365,0-3.125-0.466-3.793-1.399c-0.625-0.874-0.488-1.875-0.369-2.758
			c0.023-0.172,0.047-0.344,0.064-0.515c0.279-2.692,2.1-4.538,4.75-4.816c0.213-0.021,0.424,0.101,0.51,0.293
			c1.416,0.154,2.475,0.401,3.467,1.769c0.773,1.064,1.361,2.068,0.727,3.574c-0.568,1.353-2.74,3.262-4.227,3.713
			C98.699,30.782,98.308,30.829,97.876,30.829z M98.427,22.36c-2.07,0.298-3.43,1.742-3.654,3.9
			c-0.018,0.182-0.043,0.363-0.068,0.546c-0.107,0.8-0.201,1.49,0.193,2.041c0.545,0.763,2.809,1.194,3.816,0.885
			c1.195-0.362,3.145-2.066,3.596-3.144c0.402-0.955,0.148-1.548-0.613-2.599c-0.855-1.178-1.662-1.256-3.273-1.413L98.427,22.36z"
			/>
	</g>
	<g>
		<path fill="#32484E" d="M105.226,22.163c-0.416,0-0.805-0.062-1.154-0.206c-0.254-0.104-0.377-0.397-0.271-0.652
			c0.105-0.256,0.396-0.378,0.652-0.271c1.156,0.472,3.381-0.438,5.168-1.172c0.873-0.359,1.699-0.698,2.367-0.871
			c0.27-0.069,0.539,0.092,0.609,0.359c0.068,0.268-0.092,0.54-0.359,0.609c-0.602,0.155-1.396,0.481-2.236,0.827
			C108.408,21.44,106.652,22.163,105.226,22.163z"/>
	</g>
	<g>
		<path fill="#32484E" d="M109.277,31.383c-0.244,0-0.459-0.182-0.494-0.432c-0.266-1.929-0.531-4.826-0.293-7.683
			c0.129-1.517-0.027-3.087-0.178-4.604c-0.068-0.681-0.135-1.361-0.18-2.041c-0.125-1.942-0.338-4.464-0.865-6.739
			c-0.062-0.269,0.105-0.537,0.375-0.6c0.264-0.062,0.537,0.105,0.6,0.375c0.543,2.346,0.76,4.919,0.889,6.899
			c0.043,0.668,0.109,1.337,0.176,2.007c0.156,1.562,0.316,3.179,0.18,4.787c-0.182,2.188-0.084,4.769,0.287,7.462
			c0.039,0.273-0.152,0.526-0.426,0.563C109.324,31.381,109.3,31.383,109.277,31.383z"/>
	</g>
	<g>
		<path fill="#32484E" d="M115.558,24.115c-0.4,0-0.746-0.052-1.012-0.168c-0.254-0.111-0.367-0.406-0.258-0.659
			c0.113-0.253,0.408-0.365,0.66-0.257c1.049,0.465,5.18-0.876,6.449-1.908c0.215-0.175,0.529-0.142,0.703,0.072
			c0.176,0.215,0.143,0.529-0.072,0.703C120.912,22.807,117.568,24.115,115.558,24.115z"/>
	</g>
	<g>
		<path fill="#32484E" d="M118.869,36.181c-0.232,0-0.441-0.164-0.488-0.402c-0.334-1.668-0.242-3.476-0.154-5.224
			c0.035-0.705,0.07-1.401,0.076-2.071c0.016-2.219-0.086-4.478-0.186-6.663c-0.031-0.692-0.062-1.386-0.09-2.078
			c-0.035-0.888-0.133-1.798-0.234-2.761c-0.197-1.847-0.398-3.757-0.148-5.546c0.039-0.273,0.301-0.458,0.564-0.426
			c0.273,0.038,0.463,0.291,0.426,0.564c-0.234,1.667-0.037,3.515,0.152,5.302c0.1,0.937,0.203,1.905,0.24,2.825
			c0.027,0.691,0.059,1.383,0.09,2.074c0.1,2.198,0.201,4.471,0.186,6.716c-0.006,0.685-0.041,1.395-0.078,2.114
			c-0.084,1.687-0.172,3.431,0.137,4.978c0.053,0.271-0.121,0.534-0.393,0.588C118.935,36.178,118.902,36.181,118.869,36.181z"/>
	</g>
	<g>
		<path fill="#32484E" d="M127.16,30.812c-0.256,0-0.475-0.197-0.496-0.459c-0.115-1.387-0.199-2.804-0.281-4.222
			c-0.045-0.772-0.09-1.546-0.141-2.315c-0.084-1.291-0.08-2.679-0.076-4.02c0.006-2.666,0.012-5.422-0.635-7.792
			c-0.072-0.267,0.086-0.542,0.352-0.614c0.271-0.07,0.541,0.086,0.613,0.351c0.682,2.501,0.676,5.326,0.67,8.058
			c-0.004,1.386-0.008,2.695,0.074,3.953c0.051,0.771,0.096,1.547,0.141,2.322c0.082,1.409,0.164,2.818,0.279,4.197
			c0.023,0.274-0.182,0.517-0.457,0.539C127.189,30.811,127.175,30.812,127.16,30.812z"/>
	</g>
	<g>
		<path fill="#32484E" d="M139.468,33.955c-0.365,0-0.732-0.024-1.1-0.075c-1.695-0.234-2.887-0.851-3.643-1.885
			c-0.898-1.23-1.029-2.872-0.877-4.616c-0.328,0.059-0.68,0.09-0.994,0.087c-0.494,0-2.889-0.064-3.889-1.267
			c-0.365-0.44-0.498-0.984-0.387-1.576c0.051-0.272,0.318-0.451,0.584-0.398c0.271,0.051,0.449,0.312,0.398,0.584
			c-0.057,0.301-0.002,0.54,0.174,0.751c0.52,0.625,1.998,0.864,3.127,0.906c0.389-0.001,0.756-0.046,1.104-0.128
			c0.064-0.474,0.143-0.949,0.227-1.423c0.123-0.717,1.111-4.594,2.814-5.693c0.436-0.279,0.9-0.366,1.352-0.251
			c0.525,0.137,0.9,0.475,1.082,0.978c0.516,1.424-0.715,3.816-1.109,4.366c-0.969,1.352-2.154,2.299-3.449,2.782
			c-0.174,1.654-0.119,3.253,0.652,4.309c0.586,0.804,1.559,1.289,2.971,1.484c4.256,0.588,8.297-2.791,9.611-6.257
			c0.098-0.259,0.387-0.386,0.645-0.291c0.26,0.098,0.389,0.387,0.291,0.645C147.716,30.515,143.787,33.955,139.468,33.955z
			 M137.964,19.92c-0.105,0-0.242,0.031-0.414,0.143c-1.174,0.756-2.186,3.94-2.373,5.023c-0.049,0.285-0.098,0.574-0.143,0.865
			c1.094-0.544,1.918-1.43,2.484-2.219c0.451-0.632,1.293-2.587,0.982-3.443c-0.07-0.191-0.188-0.297-0.395-0.35
			C138.068,19.929,138.021,19.92,137.964,19.92z"/>
	</g>
</g>
</svg>
