<?xml version="1.0" encoding="utf-8"?>
<!-- Generator: Adobe Illustrator 16.0.0, SVG Export Plug-In . SVG Version: 6.00 Build 0)  -->
<!DOCTYPE svg PUBLIC "-//W3C//DTD SVG 1.1//EN" "http://www.w3.org/Graphics/SVG/1.1/DTD/svg11.dtd">
<svg version="1.1" id="Layer_1" xmlns="http://www.w3.org/2000/svg" xmlns:xlink="http://www.w3.org/1999/xlink" x="0px" y="0px"
	 width="191.5px" height="83.25px" viewBox="0 0 191.5 83.25" enable-background="new 0 0 191.5 83.25" xml:space="preserve">
<rect fill="#ECF2EC" width="191" height="83"/>
<g>
	<g>
		<path fill="#36474D" d="M9.846,79.834c-0.015,0-0.029-0.001-0.044-0.002c-0.262-0.023-0.461-0.245-0.456-0.508
			c0.035-1.829,1.388-4.182,3.046-6.454c2.473-4.684,4.785-9.527,7.029-14.227c1.826-3.824,3.715-7.778,5.674-11.614
			c0.587-1.149,1.247-2.343,1.956-3.578c-0.124-0.063-0.247-0.127-0.369-0.19c-1.322-0.68-2.57-1.322-3.701-2.037
			c-0.188-0.119-0.274-0.348-0.213-0.561c0.061-0.214,0.256-0.361,0.478-0.362c0.253-0.002,0.506-0.007,0.759-0.015
			c-0.692-0.718-1.144-1.812-1.349-2.311c-1.51-3.656-1.185-7.252,0.94-10.397c2.865-4.241,8.791-7.18,14.451-7.18
			c0.193,0.002,0.396,0.03,0.521,0.176c0.094,0.11,0.136,0.256,0.114,0.398c-0.885,5.945-4.608,12.505-8.087,18.409
			c4.02-0.916,7.978-2.392,11.854-3.836c0.756-0.282,1.515-0.564,2.277-0.845c1.632-2.37,3.136-4.896,4.597-7.349
			c2.607-4.379,5.305-8.907,8.789-12.67c0.155-0.167,0.402-0.208,0.603-0.102c0.2,0.107,0.304,0.336,0.251,0.558
			c-0.141,0.591-0.359,1.127-0.572,1.645c-0.171,0.419-0.332,0.814-0.458,1.24c-0.01,0.033-0.023,0.066-0.04,0.097
			c-1.714,3.156-3.425,6.315-5.13,9.479c-0.876,1.735-1.748,3.481-2.613,5.233c3.107-0.97,6.272-1.737,9.507-2.039
			c1.045-0.211,2.085-0.263,3.029-0.134c0.261,0.034,0.45,0.266,0.433,0.529c-0.012,0.168-0.105,0.312-0.24,0.394
			c0.029,0.144-0.006,0.299-0.105,0.419c-0.198,0.238-0.402,0.475-0.607,0.712c-0.697,0.807-1.414,1.636-1.849,2.543
			c1.631,0.088,4.262-0.265,6.52-1.089c-0.028-1.274,0.487-2.615,1.401-3.595c0.912-0.978,2.082-1.48,3.294-1.401
			c0.237,0.015,0.432,0.194,0.465,0.429c0.087,0.615,0.031,1.204-0.166,1.763c0.789-0.709,1.468-1.464,1.983-2.175
			c0.053-0.076,0.104-0.149,0.155-0.219c0.158-0.223,0.468-0.274,0.693-0.117c0.224,0.158,0.279,0.467,0.124,0.692
			c-0.052,0.075-0.105,0.15-0.16,0.227c-1.29,1.857-1.777,3.443-1.338,4.376c0.314,0.668,1.144,1.051,2.464,1.138
			c2.457,0.14,4.962-2.187,6.375-4.582c0.754-1.279,1.191-2.558,1.267-3.591c-1.446-0.996-2.601-1.864-3.132-2.551
			c-0.111-0.144-0.136-0.336-0.064-0.502c0.071-0.167,0.228-0.282,0.408-0.301c1.97-0.203,2.897,0.543,3.325,1.21
			c0.303,0.471,0.448,1.025,0.475,1.624c0.445,0.303,0.91,0.614,1.381,0.93c2.959,1.983,5.987,4.012,7.518,5.902
			c4.121,0.124,8.311,0.714,12.418,1.291c4.539,0.639,9.236,1.3,13.697,1.302c0.277,0,0.5,0.224,0.5,0.5s-0.223,0.5-0.5,0.5l0,0
			c-4.531-0.002-9.262-0.668-13.838-1.312c-3.838-0.54-7.752-1.091-11.596-1.255c0.297,0.587,0.412,1.155,0.293,1.701
			c-0.436,2.012-3.266,2.707-5.636,2.206c-2.466-0.526-3.792-2.139-3.379-4.107c0.042-0.202,0.205-0.357,0.408-0.391
			c1.995-0.326,4.033-0.459,6.093-0.459c0.057,0,0.115,0,0.172,0c-1.643-1.653-4.44-3.529-6.708-5.049
			c-0.308-0.206-0.609-0.408-0.903-0.606c-0.198,1.183-0.726,2.427-1.338,3.465c-1.453,2.466-4.233,5.285-7.303,5.072
			c-1.71-0.113-2.821-0.688-3.303-1.709c-0.325-0.691-0.306-1.487-0.103-2.28c-1.371,1.186-3.031,2.23-4.769,2.757
			c-0.075,0.023-0.155,0.026-0.234,0.014c-2.791,1.041-6.099,1.378-7.748,1.121c-0.146-0.022-0.272-0.106-0.35-0.23
			c-0.077-0.125-0.096-0.277-0.052-0.416c0.11-0.345,0.255-0.672,0.424-0.987c-1.907,1.245-4.044,2.096-6.065,1.527
			c-0.14-0.04-0.256-0.138-0.317-0.27s-0.062-0.284-0.003-0.417c0.549-1.22,1.499-2.233,2.647-3.01
			c-2.115,0.431-4.207,1.023-6.277,1.696c-1.936,3.941-3.835,7.908-5.675,11.852c-0.585,1.204-1.233,2.423-1.919,3.712
			c-2.047,3.848-4.163,7.826-4.783,11.748c-0.041,0.257-0.258,0.454-0.533,0.42c-0.26-0.02-0.46-0.236-0.461-0.497
			c-0.002-0.928,0.052-1.884,0.108-2.896c0.148-2.643,0.303-5.376-0.588-7.575c-0.303-0.751-0.701-1.43-1.173-2.051
			c-1.37,1.521-2.748,3.022-4.112,4.511c-4,4.361-8.137,8.87-11.827,13.568c-0.41,0.521-0.972,1.182-1.612,1.933
			c-1.128,1.323-2.503,2.937-3.708,4.573c-0.254,0.48-0.509,0.959-0.766,1.436c-0.233,0.432-0.471,0.836-0.702,1.228
			c-0.669,1.134-1.247,2.114-1.447,3.374C10.301,79.657,10.09,79.834,9.846,79.834z M27.939,43.912
			c-0.709,1.236-1.37,2.429-1.953,3.572c-1.953,3.824-3.838,7.772-5.662,11.59c-1.552,3.251-3.138,6.571-4.788,9.863
			c0.229-0.271,0.452-0.532,0.666-0.783c0.631-0.74,1.185-1.389,1.587-1.901c3.715-4.729,7.864-9.252,11.877-13.627
			c1.394-1.521,2.801-3.055,4.2-4.608C32.291,46.316,30.142,45.068,27.939,43.912z M35.191,48.038
			c0.576,0.729,1.062,1.531,1.425,2.429c0.791,1.956,0.834,4.201,0.739,6.45c0.98-2.619,2.358-5.21,3.707-7.745
			c0.682-1.281,1.325-2.491,1.898-3.673c1.703-3.648,3.458-7.32,5.247-10.977c-0.951,0.326-1.897,0.664-2.84,1.009
			c-0.212,0.305-0.427,0.606-0.643,0.905C41.801,40.47,38.527,44.313,35.191,48.038z M28.44,43.046
			c2.182,1.148,4.41,2.448,6.091,4.23c3.206-3.583,6.351-7.273,9.168-11.129c-0.301,0.112-0.602,0.224-0.9,0.336
			c-4.203,1.566-8.502,3.168-12.896,4.073C29.402,41.403,28.912,42.233,28.44,43.046z M24.984,41.238
			c0.687,0.378,1.409,0.75,2.155,1.134c0.137,0.07,0.274,0.142,0.412,0.212c0.34-0.584,0.688-1.178,1.043-1.779
			C27.398,41.011,26.195,41.16,24.984,41.238z M30.011,24.539c0.245,0,0.455,0.179,0.494,0.421
			c0.391,2.44-1.007,12.048-3.517,15.076c0.762-0.1,1.521-0.226,2.279-0.373c3.445-5.834,7.275-12.384,8.33-18.258
			c-5.138,0.156-10.602,2.926-13.173,6.732c-1.929,2.854-2.221,6.125-0.846,9.457c0.681,1.65,1.398,2.499,1.96,2.346
			c0.813-0.229,1.61-1.83,2.278-3.919c-0.078-0.121-0.104-0.275-0.056-0.424c0.655-2.036,0.554-4.505,0.456-6.894
			c-0.049-1.214-0.101-2.469-0.05-3.643c0.011-0.236,0.185-0.433,0.418-0.472c0.402-0.067,0.735-0.061,1.086-0.055L30.011,24.539
			L30.011,24.539z M86.197,34.789c-0.142,1.841,1.974,2.444,2.657,2.59c1.871,0.4,4.16-0.094,4.451-1.439
			c0.096-0.443-0.098-0.962-0.494-1.527C90.562,34.37,88.352,34.465,86.197,34.789z M54.38,35.234
			c2.458,0.284,5.23-1.776,7.271-3.565c-0.607,0.02-1.211,0.058-1.814,0.112C57.674,32.228,55.476,33.44,54.38,35.234z
			 M57.08,17.413c-2.601,3.234-4.778,6.893-6.897,10.451c-1.237,2.078-2.505,4.207-3.86,6.259c0.831-0.297,1.667-0.587,2.506-0.864
			c1.008-2.05,2.026-4.093,3.051-6.123c1.704-3.16,3.407-6.306,5.113-9.446C57.02,17.596,57.049,17.504,57.08,17.413z
			 M71.038,30.176c-0.754,0.07-1.475,0.443-2.067,1.078c-0.646,0.692-1.045,1.602-1.12,2.498c0.854-0.395,1.609-0.87,2.176-1.43
			C70.698,31.658,71.032,30.952,71.038,30.176z M29.154,25.536c-0.023,0.999,0.02,2.037,0.064,3.127
			c0.013,0.323,0.026,0.648,0.037,0.974c0.249-1.675,0.366-3.166,0.307-4.104C29.421,25.53,29.287,25.529,29.154,25.536z
			 M81.914,24.779c0.369,0.305,0.817,0.64,1.316,0.995c-0.039-0.095-0.085-0.185-0.138-0.267
			C82.847,25.126,82.452,24.883,81.914,24.779z"/>
	</g>
	<g>
		<path fill="#36474D" d="M113.197,60.517c-2.234,0-4.059-0.771-5.441-2.31c-5.639-6.265-1.984-23.249-0.09-28.397
			c1.857-5.047,6.969-16.908,14.293-18.049c2.691-0.418,5.213,0.64,7.652,1.663c0.812,0.341,1.59,0.667,2.354,0.931
			c0.076-0.746,0.139-1.599-0.002-2.252c-0.059-0.27,0.111-0.536,0.381-0.595c0.264-0.058,0.537,0.111,0.596,0.382
			c0.197,0.906,0.08,2.006-0.014,2.89l-0.031,0.293c-0.014,0.148-0.096,0.282-0.219,0.365c-0.125,0.083-0.279,0.105-0.424,0.062
			c-1-0.304-2.031-0.736-3.027-1.154c-2.311-0.971-4.703-1.977-7.111-1.597c-6.799,1.059-11.713,12.525-13.51,17.406
			c-2.113,5.744-5.146,21.783-0.105,27.383c1.697,1.888,4.219,2.425,7.496,1.599c4.598-1.162,9.035-6.265,10.555-12.132
			c1.25-4.825,0.277-9.181-2.67-11.949c-0.488-0.46-0.99-0.817-1.484-1.068c-0.418-0.003-0.82-0.008-1.221,0.002
			c0.125,1.482-0.225,2.654-1.008,3.334c-0.521,0.453-1.488,0.889-3.145,0.389c-0.234-0.07-0.383-0.3-0.352-0.542
			c0.289-2.244,1.342-3.85,2.891-4.405c0.949-0.34,2.008-0.253,3.064,0.226c0.01,0,0.02,0,0.029,0
			c1.43,0.02,2.912,0.037,4.238-0.379c0.174-0.055,0.365-0.01,0.496,0.117c0.133,0.128,0.184,0.317,0.135,0.494
			c-0.096,0.34-0.107,0.786-0.119,1.259c-0.014,0.481-0.027,0.975-0.129,1.432c1.027,0.54,1.977,0.625,2.896,0.264
			c2.098-0.825,3.852-3.896,5.363-7.769c-0.494-0.028-0.961-0.057-1.393-0.089c-2.016-0.15-3.945-0.288-5.822-0.385
			c-2.422-0.012-4.848-0.048-7.277-0.108c-0.27-0.007-0.486-0.228-0.486-0.498c-0.002-0.271,0.213-0.493,0.482-0.502
			c2.402-0.076,4.811-0.021,7.311,0.108c2.596,0.015,5.176-0.004,7.756-0.049c1.148-3.209,2.156-6.805,3.07-10.071
			c1.512-5.396,2.816-10.055,4.34-11.976c0.127-0.16,0.338-0.228,0.531-0.169c0.195,0.057,0.338,0.228,0.357,0.43
			c0.312,3.12-0.516,6.358-1.318,9.489c-0.289,1.131-0.562,2.199-0.781,3.251c-0.105,0.511-0.332,1.307-0.621,2.314
			c-0.504,1.767-1.277,4.483-1.598,6.64c8.604-0.246,17.117-0.81,25.465-1.686c2.209-0.232,4.469-0.534,6.654-0.826
			c4.541-0.606,9.238-1.233,13.877-1.292h0.006c0.273,0,0.496,0.22,0.5,0.494c0.004,0.275-0.219,0.502-0.494,0.506
			c-4.578,0.058-9.244,0.681-13.756,1.283c-2.191,0.293-4.459,0.596-6.684,0.829c-7.922,0.832-15.996,1.382-24.152,1.648
			c4.947,0.372,10.244,1.151,12.877,3.463c0.135,0.119,0.197,0.301,0.16,0.478c-0.037,0.176-0.164,0.319-0.336,0.374
			c-3.656,1.182-13.09,1.704-14.934-1.86c-0.211-0.409-0.312-0.958-0.326-1.616c-0.635-0.036-1.246-0.067-1.828-0.097
			c-0.176-0.01-0.352-0.019-0.523-0.027c-1.641,4.279-3.578,7.668-6.055,8.643c-1.311,0.519-2.693,0.339-4.113-0.528
			c-0.021-0.013-0.041-0.027-0.061-0.043c1.775,2.896,2.205,6.662,1.154,10.72c-1.631,6.3-6.27,11.584-11.279,12.85
			C115.154,60.38,114.139,60.517,113.197,60.517z M117.73,36.862c0.77,0.163,1.371,0.062,1.779-0.294
			c0.594-0.515,0.816-1.581,0.617-2.932c-0.078,0.02-0.154,0.043-0.229,0.069C118.811,34.097,118.033,35.235,117.73,36.862z
			 M124.186,33.991c0.127,0.106,0.254,0.218,0.379,0.336c0.627,0.59,1.174,1.243,1.637,1.951c-0.027-0.099-0.021-0.205,0.016-0.306
			c0.156-0.404,0.172-0.971,0.188-1.519c0.006-0.229,0.012-0.464,0.029-0.692C125.693,33.916,124.939,33.974,124.186,33.991z
			 M139.941,28.648c0.014,0.458,0.08,0.835,0.217,1.097c1.299,2.511,8.674,2.591,12.77,1.635
			C149.988,29.521,144.537,28.938,139.941,28.648z M143.467,6.855c-1.105,2.291-2.191,6.17-3.328,10.229
			c-0.912,3.262-1.873,6.69-2.959,9.781c0.631-0.013,1.258-0.027,1.889-0.043c0.268-1.949,0.928-4.395,1.654-6.942
			c0.271-0.949,0.506-1.77,0.604-2.243c0.223-1.074,0.5-2.153,0.791-3.296C142.754,11.858,143.406,9.308,143.467,6.855z"/>
	</g>
</g>
</svg>
